<svg width="269" height="84" viewBox="0 0 269 84" fill="none" xmlns="http://www.w3.org/2000/svg">
<path d="M27.9311 11.8212L26.2634 18.43C32.7625 18.8406 37.2899 19.7603 37.2899 20.8289C37.2899 22.2801 28.9423 23.4565 18.6451 23.4565C8.34772 23.4565 0 22.2801 0 20.8289C0 19.3778 8.34772 18.2012 18.6451 18.2012C20.1514 18.2012 21.6156 18.2266 23.0186 18.2741L24.9549 10.3784L34.7322 0L34.7715 0.0335249C35.0923 -0.0986163 35.7623 0.167573 36.3818 0.696258C37.0872 1.29874 37.4599 2.01403 37.2143 2.29367C37.1391 2.37934 37.0145 2.41422 36.8577 2.4041L27.9311 11.8212Z" fill="url(#paint0_linear_304_7)"/>
<path d="M229.5 36C218.967 36 212.383 41.2667 209.75 51.8C213.7 46.5333 218.308 44.5583 223.575 45.875C226.58 46.6262 228.728 48.8062 231.105 51.2193C234.978 55.1503 239.46 59.7 249.25 59.7C259.783 59.7 266.367 54.4333 269 43.9C265.05 49.1667 260.442 51.1417 255.175 49.825C252.17 49.0738 250.022 46.8938 247.645 44.4806C243.772 40.5497 239.29 36 229.5 36Z" fill="url(#paint1_linear_304_7)"/>
<path d="M209.75 59.7C199.217 59.7 192.633 64.9667 190 75.5C193.95 70.2333 198.558 68.2583 203.825 69.575C206.83 70.3262 208.978 72.5062 211.355 74.9193C215.228 78.8503 219.71 83.4 229.5 83.4C240.033 83.4 246.617 78.1333 249.25 67.6C245.3 72.8667 240.692 74.8417 235.425 73.525C232.42 72.7738 230.272 70.5938 227.895 68.1806C224.022 64.2497 219.54 59.7 209.75 59.7Z" fill="url(#paint2_linear_304_7)"/>
<path d="M28.6064 80.495L29.3959 67.2107L31.5761 63.4529C31.5761 63.4529 26.614 65.5025 18.3067 65.5025C9.99921 65.5025 5.11235 63.4908 5.11235 63.4908L7.55571 67.59L8.42006 80.495C8.42006 81.8785 12.9388 83 18.5133 83C24.0875 83 28.6064 81.8785 28.6064 80.495Z" fill="url(#paint3_linear_304_7)"/>
<path d="M28.3358 48.0678C28.2106 46.8619 29.7274 45.3484 30.8283 44.2499C31.6616 43.4184 32.2566 42.8246 31.7205 42.7823C29.0415 42.9356 27.7082 45.9254 26.3603 49.0566C26.2862 49.2287 26.1852 49.4851 26.0633 49.7945C25.3725 51.5484 24.01 55.0074 23.0677 54.4953C22.3382 54.0989 23.1919 52.2195 24.0639 50.2996C24.5165 49.3032 24.9741 48.2959 25.2178 47.4794C25.1851 47.5033 25.149 47.53 25.1098 47.5591C24.1588 48.2627 21.3454 50.3442 20.5984 48.2326C19.3478 49.296 16.6754 49.8721 16.9769 47.0789C16.3116 48.2587 14.8183 49.9059 13.0259 49.2215C10.6721 48.3228 14.3899 40.8163 15.3143 41.195C16.0785 41.5079 15.452 42.7303 15.0473 43.52C14.9624 43.6857 14.8872 43.8324 14.8367 43.9476C14.1967 45.4089 13.4573 47.246 13.9513 47.6221C14.787 48.2584 17.0435 45.2601 17.1483 45.1209L17.1512 45.117C17.2706 44.9591 17.4512 44.5586 17.6709 44.0713C18.2438 42.8006 19.083 40.9395 19.7977 41.2488C20.2459 41.4427 19.7812 42.5595 19.2592 43.8136C18.6296 45.3265 17.9167 47.0394 18.6232 47.5733C18.8837 47.7704 19.9499 47.4518 20.5984 46.7493C20.7782 46.5547 20.8545 46.2586 20.9929 45.7212C21.1776 45.0042 21.473 43.8577 22.2725 41.9489C22.6163 41.1281 22.9509 40.2578 23.2743 39.4166C24.2667 36.8355 25.1537 34.5286 25.8772 34.7675C26.8365 35.0842 26.0458 37.2187 25.7017 38.0144C25.5597 38.3428 25.4086 38.69 25.252 39.0499C23.6275 42.7827 21.4101 47.8778 22.6112 47.4518C22.813 47.3802 23 47.319 23.1767 47.2612C24.1524 46.9417 24.8117 46.7258 25.9036 45.4466C26.5364 44.7053 26.8443 43.7286 27.0954 42.9322C27.3561 42.1055 27.5555 41.4731 27.9933 41.5001C28.8531 41.5531 28.7088 42.351 28.5003 42.9586C29.3463 41.9894 32.5106 39.9481 33.2745 41.9698C33.8409 43.4682 31.924 45.3834 30.7432 46.5631C30.0379 47.2679 29.5952 47.7101 30.1017 47.6442C31.4222 47.4723 33.5615 46.1158 34.4749 44.8825L36.9891 22.2536C36.9891 22.2536 34.4592 24.3497 18.3638 24.3497C2.26819 24.3497 0 22.2972 0 22.2972L2.14048 42.952C3.27664 39.7192 5.97461 33.1804 10.2273 33.3998C12.1618 33.4997 14.7443 37.2289 12.5322 37.3552C12.0625 37.382 11.8045 36.9137 11.5241 36.4047C11.2455 35.8988 10.9447 35.3528 10.392 35.2126C9.59187 35.0097 8.47793 35.6609 7.75801 36.3664C6.32229 37.7731 3.23442 43.3232 3.64241 46.0902C4.16223 49.6178 8.50485 44.8644 9.23963 43.4531C9.3945 43.1556 9.53433 42.6833 9.68459 42.1758C10.0364 40.9875 10.4454 39.6061 11.2384 39.8226C12.1814 40.0801 11.4847 42.2328 10.7514 44.4982C10.6046 44.952 10.4562 45.4103 10.3193 45.8588C10.1086 46.5487 9.92073 47.2472 9.74248 47.9101C9.14106 50.1465 8.64906 51.976 7.75801 51.6936C6.97628 51.446 7.58512 49.5822 8.03948 48.1914C8.25661 47.5267 8.43845 46.9701 8.41642 46.7493C8.28003 46.8753 8.1292 47.0256 7.96465 47.1894C6.81922 48.3303 5.0087 50.1336 2.77095 49.0347L4.10029 61.8611C4.10029 61.8611 7.63338 64.6558 18.2765 64.6558C28.9196 64.6558 32.5835 61.9047 32.5835 61.9047L34.2342 47.0487C32.8837 48.3652 28.6095 50.7031 28.3358 48.0678Z" fill="url(#paint4_linear_304_7)"/>
<path d="M49.5682 48.0909L59.4318 83H68.0227L74.5682 59.4091H75.0455L81.5909 83H90.1591L100.045 48.0909H91.6364L85.5909 72.5H85.25L78.9773 48.0909H70.6818L64.4091 72.6364H64.0909L57.9545 48.0909H49.5682Z" fill="url(#paint5_linear_304_7)"/>
<path d="M104.79 48.0909V83H113.017V48.0909H104.79Z" fill="url(#paint6_linear_304_7)"/>
<path d="M105.562 41.8409C106.502 42.7045 107.623 43.1364 108.926 43.1364C110.244 43.1364 111.366 42.7045 112.29 41.8409C113.229 40.9621 113.699 39.9091 113.699 38.6818C113.699 37.4394 113.229 36.3864 112.29 35.5227C111.366 34.6439 110.244 34.2045 108.926 34.2045C107.623 34.2045 106.502 34.6439 105.562 35.5227C104.623 36.3864 104.153 37.4394 104.153 38.6818C104.153 39.9091 104.623 40.9621 105.562 41.8409Z" fill="url(#paint7_linear_304_7)"/>
<path d="M137.909 54.4545V48.0909H131.023V39.7273H122.795V48.0909H117.841V54.4545H122.795V73.8636C122.78 76.0455 123.25 77.8636 124.205 79.3182C125.174 80.7727 126.485 81.8485 128.136 82.5455C129.788 83.2273 131.644 83.5379 133.705 83.4773C134.871 83.447 135.856 83.3409 136.659 83.1591C137.477 82.9773 138.106 82.8106 138.545 82.6591L137.159 76.2273C136.932 76.2879 136.598 76.3561 136.159 76.4318C135.735 76.5076 135.265 76.5455 134.75 76.5455C134.068 76.5455 133.447 76.4394 132.886 76.2273C132.326 76.0152 131.871 75.6212 131.523 75.0455C131.189 74.4545 131.023 73.6061 131.023 72.5V54.4545H137.909Z" fill="url(#paint8_linear_304_7)"/>
<path d="M152.767 83V62.5455C152.767 60.8636 153.085 59.4318 153.722 58.25C154.373 57.0682 155.267 56.1667 156.403 55.5455C157.555 54.9091 158.858 54.5909 160.312 54.5909C162.479 54.5909 164.161 55.25 165.358 56.5682C166.57 57.8712 167.176 59.697 167.176 62.0455V83H175.403V60.7727C175.403 57.9545 174.903 55.5682 173.903 53.6136C172.919 51.6591 171.525 50.1742 169.722 49.1591C167.919 48.1439 165.805 47.6364 163.381 47.6364C160.714 47.6364 158.517 48.2121 156.79 49.3636C155.078 50.5 153.812 52.053 152.994 54.0227H152.585V36.4545H144.54V83H152.767Z" fill="url(#paint9_linear_304_7)"/>
<defs>
<linearGradient id="paint0_linear_304_7" x1="4" y1="19" x2="259" y2="83" gradientUnits="userSpaceOnUse">
<stop stop-color="#D34A47"/>
<stop offset="0.130558" stop-color="#F15451"/>
<stop offset="0.208279" stop-color="#5A7FDF"/>
<stop offset="0.63735" stop-color="#2298BD"/>
<stop offset="1" stop-color="#0ED7B5"/>
</linearGradient>
<linearGradient id="paint1_linear_304_7" x1="4" y1="19" x2="259" y2="83" gradientUnits="userSpaceOnUse">
<stop stop-color="#D34A47"/>
<stop offset="0.130558" stop-color="#F15451"/>
<stop offset="0.208279" stop-color="#5A7FDF"/>
<stop offset="0.63735" stop-color="#2298BD"/>
<stop offset="1" stop-color="#0ED7B5"/>
</linearGradient>
<linearGradient id="paint2_linear_304_7" x1="4" y1="19" x2="259" y2="83" gradientUnits="userSpaceOnUse">
<stop stop-color="#D34A47"/>
<stop offset="0.130558" stop-color="#F15451"/>
<stop offset="0.208279" stop-color="#5A7FDF"/>
<stop offset="0.63735" stop-color="#2298BD"/>
<stop offset="1" stop-color="#0ED7B5"/>
</linearGradient>
<linearGradient id="paint3_linear_304_7" x1="4" y1="19" x2="259" y2="83" gradientUnits="userSpaceOnUse">
<stop stop-color="#D34A47"/>
<stop offset="0.130558" stop-color="#F15451"/>
<stop offset="0.208279" stop-color="#5A7FDF"/>
<stop offset="0.63735" stop-color="#2298BD"/>
<stop offset="1" stop-color="#0ED7B5"/>
</linearGradient>
<linearGradient id="paint4_linear_304_7" x1="4" y1="19" x2="259" y2="83" gradientUnits="userSpaceOnUse">
<stop stop-color="#D34A47"/>
<stop offset="0.130558" stop-color="#F15451"/>
<stop offset="0.208279" stop-color="#5A7FDF"/>
<stop offset="0.63735" stop-color="#2298BD"/>
<stop offset="1" stop-color="#0ED7B5"/>
</linearGradient>
<linearGradient id="paint5_linear_304_7" x1="4" y1="19" x2="259" y2="83" gradientUnits="userSpaceOnUse">
<stop stop-color="#D34A47"/>
<stop offset="0.130558" stop-color="#F15451"/>
<stop offset="0.208279" stop-color="#5A7FDF"/>
<stop offset="0.63735" stop-color="#2298BD"/>
<stop offset="1" stop-color="#0ED7B5"/>
</linearGradient>
<linearGradient id="paint6_linear_304_7" x1="4" y1="19" x2="259" y2="83" gradientUnits="userSpaceOnUse">
<stop stop-color="#D34A47"/>
<stop offset="0.130558" stop-color="#F15451"/>
<stop offset="0.208279" stop-color="#5A7FDF"/>
<stop offset="0.63735" stop-color="#2298BD"/>
<stop offset="1" stop-color="#0ED7B5"/>
</linearGradient>
<linearGradient id="paint7_linear_304_7" x1="4" y1="19" x2="259" y2="83" gradientUnits="userSpaceOnUse">
<stop stop-color="#D34A47"/>
<stop offset="0.130558" stop-color="#F15451"/>
<stop offset="0.208279" stop-color="#5A7FDF"/>
<stop offset="0.63735" stop-color="#2298BD"/>
<stop offset="1" stop-color="#0ED7B5"/>
</linearGradient>
<linearGradient id="paint8_linear_304_7" x1="4" y1="19" x2="259" y2="83" gradientUnits="userSpaceOnUse">
<stop stop-color="#D34A47"/>
<stop offset="0.130558" stop-color="#F15451"/>
<stop offset="0.208279" stop-color="#5A7FDF"/>
<stop offset="0.63735" stop-color="#2298BD"/>
<stop offset="1" stop-color="#0ED7B5"/>
</linearGradient>
<linearGradient id="paint9_linear_304_7" x1="4" y1="19" x2="259" y2="83" gradientUnits="userSpaceOnUse">
<stop stop-color="#D34A47"/>
<stop offset="0.130558" stop-color="#F15451"/>
<stop offset="0.208279" stop-color="#5A7FDF"/>
<stop offset="0.63735" stop-color="#2298BD"/>
<stop offset="1" stop-color="#0ED7B5"/>
</linearGradient>
</defs>
</svg>
